<svg width="150" height="150" viewBox="0 0 150 150" fill="none" xmlns="http://www.w3.org/2000/svg">
<path d="M54.3929 111.306H89.1071M54.3929 91.4722H89.1071M77.538 18.7558C76.9849 18.75 76.3635 18.75 75.6536 18.75H49.7654C43.2848 18.75 40.0421 18.75 37.5668 20.1912C35.3895 21.4588 33.6206 23.4801 32.5112 25.968C31.25 28.7964 31.25 32.5017 31.25 39.9069V116.596C31.25 124.001 31.25 127.702 32.5112 130.53C33.6206 133.018 35.3895 135.043 37.5668 136.31C40.0397 137.75 43.2785 137.75 49.7466 137.75H93.7536C100.221 137.75 103.456 137.75 105.929 136.31C108.106 135.043 109.881 133.018 110.99 130.53C112.25 127.704 112.25 124.009 112.25 116.618V60.5698C112.25 59.7589 112.249 59.0482 112.244 58.4167M77.538 18.7558C79.1893 18.773 80.2301 18.843 81.2282 19.1167C82.409 19.4406 83.5407 19.9748 84.5758 20.6997C85.7433 21.5172 86.7454 22.6625 88.7455 24.9479L106.829 45.6108C108.83 47.8977 109.825 49.0379 110.541 50.3722C111.175 51.5553 111.644 52.8452 111.928 54.1943C112.167 55.3345 112.229 56.5295 112.244 58.4167M77.538 18.7558L77.5357 37.2625C77.5357 44.6676 77.5357 48.3688 78.797 51.1971C79.9061 53.6851 81.6754 55.7093 83.8526 56.977C86.3254 58.4167 89.5642 58.4167 96.0321 58.4167H112.244" stroke="url(#paint0_linear_99_251)" stroke-width="4.352" stroke-linecap="round" stroke-linejoin="round"/>
<defs>
<linearGradient id="paint0_linear_99_251" x1="71.75" y1="18.75" x2="71.75" y2="137.75" gradientUnits="userSpaceOnUse">
<stop stop-color="#BA0000"/>
<stop offset="1" stop-color="#BA0000" stop-opacity="0.63"/>
</linearGradient>
</defs>
</svg>
