<svg width="150" height="150" viewBox="0 0 150 150" fill="none" xmlns="http://www.w3.org/2000/svg">
<path opacity="0.4" d="M83.9 37.4897V60.1C67.2995 60.3975 60.3975 67.2995 60.1 83.9H37.49C19.64 83.9 12.5 76.76 12.5 58.9103V37.4897C12.5 19.6397 19.64 12.5 37.49 12.5H58.91C76.76 12.5 83.9 19.6397 83.9 37.4897Z" stroke="#BA0000" stroke-width="3.328" stroke-linecap="round" stroke-linejoin="round"/>
<path opacity="0.4" d="M42.0072 35.527C38.8537 33.385 34.6887 33.3851 31.5352 35.6461" stroke="#BA0000" stroke-width="3.328" stroke-miterlimit="10" stroke-linecap="round" stroke-linejoin="round"/>
<path opacity="0.4" d="M65.8068 35.527C62.6533 33.385 58.4885 33.3851 55.335 35.6461" stroke="#BA0000" stroke-width="3.328" stroke-miterlimit="10" stroke-linecap="round" stroke-linejoin="round"/>
<path opacity="0.4" d="M49.1567 68.5502H35.3526C33.5676 68.5502 32.1396 67.1216 32.1396 65.3366C32.1396 56.4712 39.3392 49.272 48.2047 49.272C52.0127 49.272 55.5232 50.5808 58.2602 52.7823" stroke="#BA0000" stroke-width="3.328" stroke-miterlimit="10" stroke-linecap="round" stroke-linejoin="round"/>
<path d="M131.5 85.09V106.51C131.5 124.36 124.36 131.5 106.51 131.5H85.0896C67.2396 131.5 60.0996 124.36 60.0996 106.51V83.9C60.3971 67.2995 67.2991 60.3975 83.8996 60.1H106.51C124.36 60.1 131.5 67.24 131.5 85.09Z" stroke="#BA0000" stroke-width="3.328" stroke-linecap="round" stroke-linejoin="round"/>
<path d="M89.6077 81.6396C86.4542 83.7816 82.2892 83.7816 79.1357 81.5206" stroke="#BA0000" stroke-width="3.328" stroke-miterlimit="10" stroke-linecap="round" stroke-linejoin="round"/>
<path d="M113.408 81.6396C110.254 83.7816 106.089 83.7816 102.936 81.5206" stroke="#BA0000" stroke-width="3.328" stroke-miterlimit="10" stroke-linecap="round" stroke-linejoin="round"/>
<path d="M82.9523 96.8722H108.656C110.441 96.8722 111.869 98.2996 111.869 100.085C111.869 108.95 104.67 116.15 95.8043 116.15C86.9388 116.15 79.7393 108.95 79.7393 100.085C79.7393 98.2996 81.1673 96.8722 82.9523 96.8722Z" stroke="#BA0000" stroke-width="3.328" stroke-miterlimit="10" stroke-linecap="round" stroke-linejoin="round"/>
</svg>
