<svg width="150" height="150" viewBox="0 0 150 150" fill="none" xmlns="http://www.w3.org/2000/svg">
<path opacity="0.4" d="M39.6442 53.6144C40.0019 53.5549 40.4191 53.5549 40.7767 53.6144C49.0021 53.3169 55.5586 46.5944 55.5586 38.2655C55.5586 29.7582 48.7041 22.9167 40.1807 22.9167C31.6573 22.9167 24.8028 29.8177 24.8028 38.2655C24.8624 46.5944 31.4188 53.3169 39.6442 53.6144Z" stroke="#BA0000" stroke-width="2.56" stroke-linecap="round" stroke-linejoin="round"/>
<path opacity="0.4" d="M45.787 96.9255C37.6212 98.2938 28.621 96.866 22.3029 92.6421C13.8987 87.0499 13.8987 77.8882 22.3029 72.296C28.6806 68.0718 37.8 66.644 45.9658 68.0718" stroke="#BA0000" stroke-width="2.56" stroke-linecap="round" stroke-linejoin="round"/>
<path opacity="0.4" d="M111.358 53.6144C111 53.5549 110.583 53.5549 110.225 53.6144C102 53.3169 95.4434 46.5944 95.4434 38.2655C95.4434 29.7582 102.298 22.9167 110.821 22.9167C119.345 22.9167 126.199 29.8177 126.199 38.2655C126.14 46.5944 119.583 53.3169 111.358 53.6144Z" stroke="#BA0000" stroke-width="2.56" stroke-linecap="round" stroke-linejoin="round"/>
<path opacity="0.4" d="M105.213 96.9255C113.379 98.2938 122.379 96.866 128.697 92.6421C137.101 87.0499 137.101 77.8882 128.697 72.296C122.319 68.0718 113.2 66.644 105.034 68.0718" stroke="#BA0000" stroke-width="2.56" stroke-linecap="round" stroke-linejoin="round"/>
<path d="M75.3951 98.0559C75.7527 97.9964 76.17 97.9964 76.5276 98.0559C84.753 97.7584 91.3096 91.0358 91.3096 82.707C91.3096 74.1997 84.455 67.3582 75.9315 67.3582C67.4081 67.3582 60.5536 74.2592 60.5536 82.707C60.6132 91.0358 67.1697 97.8179 75.3951 98.0559Z" stroke="#BA0000" stroke-width="2.56" stroke-linecap="round" stroke-linejoin="round"/>
<path d="M92.7369 116.797C101.141 122.389 101.141 131.55 92.7369 137.142C83.2002 143.508 67.5839 143.508 58.0472 137.142C49.643 131.55 49.643 122.389 58.0472 116.797C67.5243 110.491 83.2002 110.491 92.7369 116.797Z" stroke="#BA0000" stroke-width="2.56" stroke-linecap="round" stroke-linejoin="round"/>
</svg>
