<svg width="35" height="35" viewBox="0 0 35 35" fill="none" xmlns="http://www.w3.org/2000/svg">
<path d="M33.3661 4.34219C33.2206 4.20984 33.027 4.12891 32.8137 4.12891C32.5742 4.12891 32.3598 4.23063 32.2089 4.39359L9.81543 28.8684L2.76621 21.8663C2.61746 21.7175 2.41293 21.6256 2.18543 21.6256C1.73262 21.6256 1.36621 21.992 1.36621 22.4448C1.36621 22.6734 1.45918 22.8802 1.61012 23.0289L9.26637 30.6337L9.28277 30.6403L9.29043 30.6567C9.43262 30.7902 9.62512 30.8722 9.83621 30.8722C10.0539 30.8722 10.2518 30.7847 10.3962 30.6425L10.4257 30.6305L10.4312 30.6184L10.4498 30.6053L33.4175 5.50047C33.5509 5.355 33.6329 5.16031 33.6329 4.94703C33.6329 4.7075 33.529 4.49203 33.3661 4.34219Z" fill="#00AA25"/>
</svg>
