<svg width="168" height="110" viewBox="0 0 168 110" fill="none" xmlns="http://www.w3.org/2000/svg">
<path d="M29.5969 54.5137H23.8301V54.7851L24.2744 55.7994L24.941 57.2194L26.274 59.8565L44.0118 59.8063V74.2593H127.618L140.918 59.8565L142.474 57.6251L142.696 57.4222L142.918 57.0165L143.14 56.4079L143.584 55.5965L143.807 55.1908V54.9879L143.362 52.0709H127.618V42.2999H95.0184V25.4042H81.047V42.2999H40.6853L37.3587 15.8367H33.8105L29.5969 54.5137Z" fill="#D9D9D9" stroke="white"/>
<path d="M80.8921 42.7298C81.9098 43.8476 81.2101 45.6705 79.7631 45.6705C78.809 45.6705 78.1729 44.9654 78.1729 43.8992C78.1729 42.833 78.7295 42.2311 79.7154 42.2311C80.2878 42.2311 80.5104 42.3342 80.8921 42.7298ZM88.6839 42.7298C89.6857 43.8132 88.986 45.6705 87.5867 45.6705C86.4258 45.6705 85.5831 44.4495 85.9647 43.3661C86.394 42.1451 87.8252 41.8011 88.6839 42.7298ZM113.061 42.7642C113.999 43.9508 113.3 45.6705 111.884 45.6705C110.469 45.6705 109.769 43.9508 110.708 42.7642C111.057 42.2999 111.216 42.2311 111.884 42.2311C112.552 42.2311 112.711 42.2999 113.061 42.7642Z" fill="#D9D9D9"/>
<path fill-rule="evenodd" clip-rule="evenodd" d="M49.4864 0.0975571C38.0372 1.52494 28.9733 8.2835 24.0279 19.1006C22.3741 22.7121 21.2292 26.9082 20.5772 31.8267C20.2592 34.1827 20.3069 40.9757 20.6567 43.4349C21.1656 46.9431 22.0402 50.4342 23.3123 53.9597L23.678 54.9571H27.0651H30.4362L30.5316 54.4756C30.5793 54.2176 31.6288 45.7221 32.8533 35.6101C34.0936 25.4808 35.1431 17.0713 35.2067 16.8994C35.2703 16.7446 36.4152 24.4834 37.7669 34.0967C39.1026 43.7272 40.3111 52.3603 40.4383 53.2718L40.6928 54.9571H41.5992H42.5056L42.0921 54.0456C41.7582 53.289 41.6946 52.9106 41.6787 51.6036C41.6787 50.2278 41.7264 49.9355 42.1716 48.938C44.6523 43.3145 52.126 44.3635 53.2074 50.4858C53.3028 51.0017 53.3346 51.724 53.271 52.0679L53.1755 52.7214H48.898C44.1434 52.7214 44.1275 52.7214 45.2247 53.7877C46.5605 55.0947 48.3574 55.0431 49.8521 53.6673C50.838 52.7558 51.4264 52.6698 52.0306 53.3405C52.3487 53.6845 52.4282 53.9081 52.3805 54.3724L52.3169 54.9571H53.4936C54.3682 54.9571 54.6385 54.9055 54.5749 54.7335C54.0501 53.3749 53.8116 52.0851 53.8911 51.0533C54.0819 48.9208 55.37 46.8399 57.1191 45.8769C58.7252 44.9998 60.7288 45.0342 62.478 45.9973C63.1459 46.3756 63.3844 46.4444 63.3844 46.2552C63.3844 46.0661 63.6706 46.0145 64.736 46.0145H66.0877L66.0082 49.4024C65.9605 51.2769 65.8809 53.2546 65.8491 53.7877L65.7696 54.7851H66.8191C67.7732 54.7851 67.8527 54.7507 67.7414 54.4756C67.6619 54.3208 67.5824 52.3431 67.5506 50.0902L67.5029 46.0145H68.6319H69.745V49.3852C69.745 51.5348 69.8086 52.8762 69.92 53.117C70.6673 54.6819 72.2893 55.0431 73.466 53.9081C74.2611 53.1514 74.4201 52.2227 74.3088 48.8176L74.2293 46.0145H75.406H76.5827V50.3998V54.7851H77.5368H78.4909V50.3998V46.0145H79.6836H80.8762V50.3998V54.7851H81.6713H82.4663V53.4437C82.4663 52.7214 82.6095 47.2011 82.7844 41.1992C82.9593 35.1973 83.1024 29.8662 83.1024 29.3674V28.4732H83.6431H84.1837L84.2791 29.8834C84.3268 30.6744 84.4699 35.7992 84.6131 41.2852C84.7403 46.7712 84.8993 52.0507 84.947 53.0138L85.0424 54.7851H85.6626H86.2827V50.3998V46.0145H87.4754H88.668V50.3998V54.7851H89.4631H90.2581V53.1858C90.2581 52.3259 90.4013 46.6164 90.5762 40.5113C90.7511 34.4063 90.8942 29.2127 90.8942 28.9375C90.8942 28.5248 90.9578 28.4732 91.4349 28.4732H91.9755L92.0709 30.3133C92.1186 31.3451 92.2458 35.4553 92.3413 39.4795C92.4367 43.5037 92.548 46.8056 92.5639 46.84C92.5798 46.8571 92.9773 46.6164 93.4226 46.2724C94.4721 45.5158 95.299 45.275 96.6983 45.275C100.769 45.3094 103.616 49.9183 102.009 53.9081C101.85 54.3208 101.707 54.6819 101.707 54.7163C101.707 54.7507 102.057 54.7851 102.502 54.7851H103.297L103.329 49.9183L103.377 45.0686L104.888 44.9482C105.635 44.8861 106.889 44.7958 107.827 44.7283L108.116 44.7075L109.817 44.6043V45.8941V47.1839L108.418 47.2527C107.321 47.3043 106.891 47.4075 106.43 47.717L105.842 48.1126V51.4488V54.7851H108.227H110.612V50.3998V46.0145H111.884H113.156V50.3998V54.7851H114.429C115.128 54.7851 115.701 54.7507 115.701 54.6991C115.701 54.6475 115.526 54.3208 115.319 53.9597C114.111 51.982 114.46 49.0756 116.114 47.2699C118.945 44.226 123.97 45.0342 125.719 48.8004C126.641 50.7953 126.259 53.3749 124.828 54.9743L124.272 55.5762L125.671 59.566C126.434 61.75 127.118 63.487 127.166 63.4182C127.214 63.3494 127.929 61.3889 128.74 59.0329L130.235 54.7851H137.12C141.732 54.7851 144.006 54.8367 144.006 54.9571C145.914 49.5743 147.631 41.7495 147.456 35.6961C147.361 32.0846 147.027 29.5222 146.295 26.4095C143.815 15.9535 137.709 7.85357 129.233 3.79499C124.415 1.49055 119.931 0.407108 115.065 0.407108C109.69 0.389912 105.158 1.55934 99.8786 4.29372C93.3908 7.6644 88.7793 12.0669 84.9152 18.5847L83.8339 20.4076L83.3568 19.5134C82.4186 17.8108 80.2242 14.5949 78.809 12.858C73.4342 6.3058 65.865 1.8001 57.8188 0.355522C56.006 0.0287704 51.2355 -0.10881 49.4864 0.0975571ZM79.7631 45.6705C81.2101 45.6705 81.9098 43.8476 80.8921 42.7298C80.5104 42.3342 80.2878 42.2311 79.7154 42.2311C78.7295 42.2311 78.1729 42.833 78.1729 43.8992C78.1729 44.9654 78.809 45.6705 79.7631 45.6705ZM87.5867 45.6705C88.986 45.6705 89.6857 43.8132 88.6839 42.7298C87.8252 41.8011 86.394 42.1451 85.9647 43.3661C85.5831 44.4495 86.4258 45.6705 87.5867 45.6705ZM111.884 45.6705C113.3 45.6705 113.999 43.9508 113.061 42.7642C112.711 42.2999 112.552 42.2311 111.884 42.2311C111.216 42.2311 111.057 42.2999 110.708 42.7642C109.769 43.9508 110.469 45.6705 111.884 45.6705Z" fill="#D00000"/>
<path d="M9.14376 36.0228L8.76213 36.3495L8.71442 55.473L8.68262 74.5792L9.15967 75.1124C9.63671 75.6283 9.65262 75.6283 11.1633 75.5595C13.5008 75.4735 13.2941 76.3678 13.2941 66.1181V57.5367H19.0187C22.1672 57.5367 24.7433 57.5023 24.7433 57.4507C24.7433 57.3991 24.4888 56.8144 24.1867 56.1609L23.6301 54.9571H18.4621H13.2941V45.6877V36.4011L12.8806 36.0572C12.5149 35.7476 12.2287 35.696 10.9884 35.696C9.77983 35.696 9.4459 35.7476 9.14376 36.0228Z" fill="#D00000"/>
<path d="M35.3343 36.5732C35.2866 36.7967 34.6982 41.44 34.0463 46.8744C33.3784 52.3087 32.8059 56.9348 32.7582 57.1412L32.6946 57.5367H28.7987C26.652 57.5367 24.9028 57.5883 24.9028 57.6571C24.9028 57.7431 25.4117 58.7577 26.0318 59.9444C29.1168 65.8258 32.3925 70.4003 37.6241 76.1786C43.8417 83.0232 50.2023 88.6295 58.7733 94.769C65.4838 99.5842 71.3833 103.282 78.6185 107.203C84.3431 110.298 83.6434 110.281 88.7001 107.547C114.079 93.7543 133.527 76.1614 141.986 59.2909L142.861 57.5367H137.439H132L129.615 64.3469C128.311 68.0959 127.182 71.1914 127.134 71.2258C127.071 71.2602 125.958 68.2163 124.638 64.4501L122.253 57.6227L94.0272 57.5711L65.8018 57.5367L65.7064 59.7208C65.6587 60.9418 65.5792 63.5386 65.5315 65.5335C65.4838 67.5112 65.4043 70.2112 65.3566 71.501L65.2612 73.8742H64.7364H64.2275L64.1162 71.071C64.0685 69.5405 63.989 66.6513 63.9413 64.6736C63.8936 62.6787 63.8141 60.2711 63.7664 59.308L63.671 57.5539L51.0928 57.6571L38.4987 57.7603L37.004 47.0291C36.1771 41.1305 35.4933 36.2636 35.4615 36.2292C35.4297 36.1948 35.382 36.3496 35.3343 36.5732Z" fill="#D00000"/>
<path d="M2.08381 42.489L1.68627 42.9018V47.7686V52.6355H0.859388H0.0166016V55.645V58.6545H0.859388H1.68627V63.4354V68.2334L2.14742 68.7322C2.59266 69.1965 2.68807 69.2309 3.9125 69.2309C5.24824 69.2309 6.01151 68.9729 6.20233 68.457C6.25004 68.3022 6.29774 62.4895 6.29774 55.5418V42.9018L5.9002 42.489C5.55037 42.0935 5.39135 42.0591 3.99201 42.0591C2.59266 42.0591 2.43365 42.0935 2.08381 42.489Z" fill="#D00000"/>
<path d="M161.911 42.4203L161.498 42.7642V55.5591C161.498 67.8724 161.513 68.3539 161.8 68.7322C162.086 69.1106 162.213 69.145 163.724 69.145C165.298 69.145 165.346 69.1278 165.727 68.6634L166.109 68.1819V63.4182V58.6546H166.936H167.779V55.645V52.6355H166.984H166.189L166.109 47.6827C166.014 41.698 166.157 42.0591 163.803 42.0591C162.563 42.0591 162.277 42.1107 161.911 42.4203Z" fill="#D00000"/>
<path d="M46.4174 48.2673C46.1312 48.3533 45.5905 48.766 45.2248 49.1616L44.541 49.8839L47.3079 49.9355C48.8345 49.9527 50.1066 49.9527 50.1384 49.9011C50.3292 49.7119 49.5977 48.9036 48.8663 48.5081C48.0235 48.0609 47.3079 47.9922 46.4174 48.2673Z" fill="#D00000"/>
<path d="M58.3115 48.4566C57.2143 49.0585 56.6578 49.9355 56.5782 51.1393C56.4828 52.8419 57.3733 54.1661 58.9794 54.6304C60.8558 55.1807 62.9071 53.4954 62.9071 51.4145C62.9071 49.0069 60.2992 47.3215 58.3115 48.4566Z" fill="#D00000"/>
<path d="M95.442 48.3189C94.1221 48.852 93.3271 50.2794 93.4702 51.8788C93.5656 52.8418 93.8677 53.3749 94.7741 54.166C95.5692 54.8711 97.0321 55.0087 98.0021 54.4584C100.896 52.8762 100.038 48.4049 96.7936 48.1297C96.3961 48.0953 95.7918 48.1813 95.442 48.3189Z" fill="#D00000"/>
<path d="M119.342 48.319C116.559 49.3852 116.559 53.0654 119.342 54.0801C121.107 54.7164 122.999 53.7017 123.508 51.8616C124.144 49.5916 121.6 47.4419 119.342 48.319Z" fill="#D00000"/>
<path d="M158.517 36.0434L158.899 36.3702L158.946 55.4936L158.978 74.5999L158.501 75.133C158.024 75.6489 158.008 75.6489 156.497 75.5801C154.16 75.4941 154.367 76.3884 154.367 66.1388V57.5573H148.642C145.493 57.5573 142.917 57.5229 142.917 57.4713C142.917 57.4197 143.172 56.835 143.474 56.1815L144.031 54.9777H149.199H154.367V45.7083V36.4218L154.78 36.0778C155.146 35.7683 155.432 35.7167 156.672 35.7167C157.881 35.7167 158.215 35.7683 158.517 36.0434Z" fill="#D00000"/>
</svg>
